<svg width="17" height="13" viewBox="0 0 17 13" fill="none" xmlns="http://www.w3.org/2000/svg">
<path d="M15.3859 0.25H1.98954C1.24995 0.25 0.649902 0.850047 0.649902 1.58964V2.03619H16.7256V1.58964C16.7256 0.850047 16.1255 0.25 15.3859 0.25ZM0.649902 11.4137C0.649902 12.1533 1.24995 12.7533 1.98954 12.7533H15.3859C16.1255 12.7533 16.7256 12.1533 16.7256 11.4137V2.92928H0.649902V11.4137ZM10.4739 4.93874C10.4739 4.81594 10.5744 4.71547 10.6972 4.71547H14.7161C14.8389 4.71547 14.9394 4.81594 14.9394 4.93874V5.38529C14.9394 5.50809 14.8389 5.60856 14.7161 5.60856H10.6972C10.5744 5.60856 10.4739 5.50809 10.4739 5.38529V4.93874ZM10.4739 6.72493C10.4739 6.60213 10.5744 6.50166 10.6972 6.50166H14.7161C14.8389 6.50166 14.9394 6.60213 14.9394 6.72493V7.17148C14.9394 7.29428 14.8389 7.39475 14.7161 7.39475H10.6972C10.5744 7.39475 10.4739 7.29428 10.4739 7.17148V6.72493ZM10.4739 8.51112C10.4739 8.38832 10.5744 8.28784 10.6972 8.28784H14.7161C14.8389 8.28784 14.9394 8.38832 14.9394 8.51112V8.95766C14.9394 9.08046 14.8389 9.18094 14.7161 9.18094H10.6972C10.5744 9.18094 10.4739 9.08046 10.4739 8.95766V8.51112ZM5.56192 4.71547C6.54711 4.71547 7.3481 5.51646 7.3481 6.50166C7.3481 7.48685 6.54711 8.28784 5.56192 8.28784C4.57672 8.28784 3.77573 7.48685 3.77573 6.50166C3.77573 5.51646 4.57672 4.71547 5.56192 4.71547ZM2.52261 10.4145C2.75704 9.69726 3.42966 9.18094 4.22228 9.18094H4.45113C4.79441 9.32327 5.1684 9.40421 5.56192 9.40421C5.95544 9.40421 6.33221 9.32327 6.6727 9.18094H6.90156C7.69418 9.18094 8.36679 9.69726 8.60123 10.4145C8.69054 10.6908 8.4561 10.9671 8.16584 10.9671H2.95799C2.66774 10.9671 2.4333 10.688 2.52261 10.4145Z" fill="#94A1B4"/>
</svg>
