<svg width="78" height="77" viewBox="0 0 78 77" fill="none" xmlns="http://www.w3.org/2000/svg">
<path d="M77.3535 38.6467C77.3535 59.8287 60.1822 77 39.0002 77C17.8183 77 0.646973 59.8287 0.646973 38.6467C0.646973 17.4647 17.8183 0.293457 39.0002 0.293457C60.1822 0.293457 77.3535 17.4647 77.3535 38.6467ZM34.5639 58.9545L63.0196 30.4988C63.9859 29.5326 63.9859 27.9658 63.0196 26.9995L59.5203 23.5003C58.5541 22.5339 56.9873 22.5339 56.0209 23.5003L32.8142 46.7068L21.9796 35.8721C21.0133 34.9059 19.4466 34.9059 18.4802 35.8721L14.9809 39.3714C14.0146 40.3377 14.0146 41.9044 14.9809 42.8707L31.0645 58.9543C32.0309 59.9207 33.5975 59.9207 34.5639 58.9545Z" fill="#1A91E3"/>
</svg>
